<?xml version="1.0" encoding="UTF-8" standalone="no"?>
<svg
   xmlns:dc="http://purl.org/dc/elements/1.1/"
   xmlns:cc="http://creativecommons.org/ns#"
   xmlns:rdf="http://www.w3.org/1999/02/22-rdf-syntax-ns#"
   xmlns:svg="http://www.w3.org/2000/svg"
   xmlns="http://www.w3.org/2000/svg"
   xmlns:sodipodi="http://sodipodi.sourceforge.net/DTD/sodipodi-0.dtd"
   xmlns:inkscape="http://www.inkscape.org/namespaces/inkscape"
   width="13.229165mm"
   height="13.229205mm"
   viewBox="0 0 13.229165 13.229205"
   version="1.1"
   id="svg8"
   inkscape:version="1.0.1 (3bc2e813f5, 2020-09-07)"
   sodipodi:docname="arte.svg">
  <defs
     id="defs2" />
  <sodipodi:namedview
     id="base"
     pagecolor="#ffffff"
     bordercolor="#666666"
     borderopacity="1.0"
     inkscape:pageopacity="0.0"
     inkscape:pageshadow="2"
     inkscape:zoom="5.6568542"
     inkscape:cx="31.943072"
     inkscape:cy="34.602898"
     inkscape:document-units="mm"
     inkscape:current-layer="layer1"
     showgrid="false"
     inkscape:snap-global="false"
     showguides="false"
     inkscape:guide-bbox="true"
     inkscape:window-width="1920"
     inkscape:window-height="1013"
     inkscape:window-x="-9"
     inkscape:window-y="-9"
     inkscape:window-maximized="1"
     inkscape:document-rotation="0"
     fit-margin-top="0"
     fit-margin-left="0"
     fit-margin-right="0"
     fit-margin-bottom="0">
    <sodipodi:guide
       position="-16.611389,22.128375"
       orientation="1,0"
       id="guide986" />
    <sodipodi:guide
       position="-16.611389,22.163515"
       orientation="0,-1"
       id="guide988" />
    <sodipodi:guide
       position="-3.3832559,22.163525"
       orientation="1,0"
       id="guide990" />
    <sodipodi:guide
       position="-9.969934,28.778085"
       orientation="0,-1"
       id="guide992" />
    <sodipodi:guide
       position="-9.997839,28.778095"
       orientation="1,0"
       id="guide994" />
    <sodipodi:guide
       position="-9.954431,15.547895"
       orientation="0,-1"
       id="guide996" />
    <sodipodi:guide
       position="-6.29347,20.995515"
       orientation="1,0"
       id="guide1000" />
    <sodipodi:guide
       position="-13.637075,20.357835"
       orientation="1,0"
       id="guide1002" />
    <sodipodi:guide
       position="-11.214485,20.969675"
       orientation="1,0"
       id="guide1033" />
    <sodipodi:guide
       position="-5.727087,18.700215"
       orientation="0,-1"
       id="guide1037" />
    <sodipodi:guide
       position="-8.71606,20.969675"
       orientation="1,0"
       id="guide1039" />
    <sodipodi:guide
       position="-5.727087,23.267805"
       orientation="0,-1"
       id="guide1063" />
    <sodipodi:guide
       position="-5.727087,23.267805"
       orientation="1,0"
       id="guide1090" />
    <sodipodi:guide
       position="-0.0005169154,6.5851348"
       orientation="1,0"
       id="guide1130" />
    <sodipodi:guide
       position="-0.0005179154,6.6140748"
       orientation="0,-1"
       id="guide1132" />
    <sodipodi:guide
       position="13.22865,6.1603448"
       orientation="1,0"
       id="guide1134" />
    <sodipodi:guide
       position="6.7101842,13.228655"
       orientation="0,-1"
       id="guide1136" />
    <sodipodi:guide
       position="6.6140662,13.163545"
       orientation="1,0"
       id="guide1138" />
    <sodipodi:guide
       position="6.6140652,-0.00051521624"
       orientation="0,-1"
       id="guide1140" />
    <sodipodi:guide
       position="29.05714,72.286556"
       orientation="1,0"
       id="guide1198" />
    <sodipodi:guide
       position="29.099515,72.286556"
       orientation="0,-1"
       id="guide1200" />
    <sodipodi:guide
       position="15.827974,72.273116"
       orientation="1,0"
       id="guide1202" />
    <sodipodi:guide
       position="22.555212,78.901136"
       orientation="0,-1"
       id="guide1204" />
    <sodipodi:guide
       position="22.442557,78.894936"
       orientation="1,0"
       id="guide1206" />
    <sodipodi:guide
       position="22.492167,65.669895"
       orientation="0,-1"
       id="guide1208" />
    <sodipodi:guide
       position="46.663301,94.916696"
       orientation="1,0"
       id="guide1473" />
    <sodipodi:guide
       position="53.300622,88.321746"
       orientation="0,-1"
       id="guide1475" />
    <sodipodi:guide
       position="91.364449,59.236185"
       orientation="1,0"
       id="guide991" />
    <sodipodi:guide
       position="98.004869,52.636075"
       orientation="0,-1"
       id="guide993" />
    <sodipodi:guide
       position="98.001769,35.394745"
       orientation="0,-1"
       id="guide1051" />
    <sodipodi:guide
       position="74.480784,42.543935"
       orientation="1,0"
       id="guide1058" />
  </sodipodi:namedview>
  <metadata
     id="metadata5">
    <rdf:RDF>
      <cc:Work
         rdf:about="">
        <dc:format>image/svg+xml</dc:format>
        <dc:type
           rdf:resource="http://purl.org/dc/dcmitype/StillImage" />
        <dc:title></dc:title>
      </cc:Work>
    </rdf:RDF>
  </metadata>
  <g
     inkscape:label="Capa 1"
     inkscape:groupmode="layer"
     id="layer1"
     transform="translate(-20.419942,-49.13443)">
    <flowRoot
       xml:space="preserve"
       id="flowRoot10"
       style="font-style:normal;font-weight:normal;font-size:40px;line-height:1.25;font-family:sans-serif;letter-spacing:0px;word-spacing:0px;fill:#000000;fill-opacity:1;stroke:none"
       transform="scale(0.26458333)"><flowRegion
         id="flowRegion12"><rect
           id="rect14"
           width="1542.8572"
           height="502.85715"
           x="-1177.1428"
           y="-126.05174" /></flowRegion><flowPara
         id="flowPara16" /></flowRoot>
    <path
       id="circle1104"
       style="fill:#f0f0f0;fill-opacity:1;stroke:none;stroke-width:0.15915;stroke-opacity:1"
       d="m 102.00781,185.70508 a 25.000001,25.000001 0 0 0 -24.830076,25 25.000001,25.000001 0 0 0 24.999996,25 25.000001,25.000001 0 0 0 25,-25 25.000001,25.000001 0 0 0 -25,-25 25.000001,25.000001 0 0 0 -0.16992,0 z m -3.929685,11.89844 a 11.69225,10.14217 75.587258 0 1 10.482425,9.08007 11.69225,10.14217 75.587258 0 1 -0.13477,7.01172 c 0.0252,-0.17757 0.10952,-0.30081 0.1211,-0.48828 -0.13867,0.4818 -0.29264,0.69608 -0.45118,0.74219 -0.15789,0.0486 -0.31783,-0.0661 -0.45898,-0.24219 -0.28233,-0.3521 -0.4961,-0.94531 -0.4961,-0.94531 -0.63832,-1.1729 -1.2361,-1.74583 -1.67382,-2.02539 -0.43771,-0.27957 -0.71289,-0.26563 -0.71289,-0.26563 -0.88733,-0.0466 -1.33886,0.14781 -1.51368,0.4668 -0.17486,0.31879 -0.0738,0.76056 0.13672,1.20898 0.42107,0.89665 1.28516,1.81836 1.28516,1.81836 0.55693,0.46024 0.88363,0.97349 1.06055,1.48243 0.17695,0.50886 0.20461,1.01432 0.16211,1.46289 -0.0849,0.89478 -0.44563,1.55559 -0.44727,1.55859 a 11.69225,10.14217 75.587258 0 1 -3.78906,2.0625 11.69225,10.14217 75.587258 0 1 -12.732424,-8.80078 11.69225,10.14217 75.587258 0 1 6.912109,-13.84766 11.69225,10.14217 75.587258 0 1 2.25,-0.27929 z m -5.054687,3.45507 a 1.3849325,1.3845069 75.587259 0 0 -0.292969,0.041 1.3849325,1.3845069 75.587259 0 0 -0.996094,1.6875 1.3849325,1.3845069 75.587259 0 0 1.685547,0.99609 1.3849325,1.3845069 75.587259 0 0 0.996094,-1.68554 1.3849325,1.3845069 75.587259 0 0 -1.392578,-1.03907 z M 115.5,203.4668 c 1.00652,1.83156 -0.41915,3.40874 -0.5,3.49609 -0.0166,0.0706 -0.97918,4.14162 -2.21484,5.99414 0,0 -3.18262,9.09703 -5.49024,11.58594 -2.05889,2.25049 -1.0293,-1.24024 -1.0293,-1.24024 1.29761,-4.62256 5.16797,-10.89257 5.16797,-10.89257 0.71006,-2.41219 2.4173,-5.75478 2.4668,-5.85157 5.5e-4,9.2e-4 -0.005,-0.005 -0.004,-0.004 0,0 -0.25532,-2.12125 1.60352,-3.08789 z m -24.275391,1.8164 a 1.3849325,1.3845069 75.587259 0 0 -0.292968,0.043 1.3849325,1.3845069 75.587259 0 0 -0.998047,1.68555 1.3849325,1.3845069 75.587259 0 0 1.6875,0.99609 1.3849325,1.3845069 75.587259 0 0 0.996094,-1.68554 1.3849325,1.3845069 75.587259 0 0 -1.392579,-1.03907 z m 0.271485,5.01758 a 1.3849325,1.3845069 75.587259 0 0 -0.292969,0.041 1.3849325,1.3845069 75.587259 0 0 -0.996094,1.6875 1.3849325,1.3845069 75.587259 0 0 1.685547,0.99609 1.3849325,1.3845069 75.587259 0 0 0.996094,-1.68555 1.3849325,1.3845069 75.587259 0 0 -1.392578,-1.03906 z m 9.833986,4.45117 a 1.9505572,1.6212257 8.5853843 0 0 -1.802736,1.33789 1.9505572,1.6212257 8.5853843 0 0 1.687496,1.89258 1.9505572,1.6212257 8.5853843 0 0 2.16993,-1.31054 1.9505572,1.6212257 8.5853843 0 0 -1.68555,-1.89454 1.9505572,1.6212257 8.5853843 0 0 -0.36914,-0.0254 z"
       inkscape:export-filename="B:\WLARA\UCR\2021\1er Ciclo 2021\TM5500_Diseño de sitios web\Proyecto_Final\2. Bases\2.1 Fotos\Arte_Icon.png"
       inkscape:export-xdpi="959.99707"
       inkscape:export-ydpi="959.99707"
       transform="scale(0.26458333)" />
    <g
       transform="matrix(-0.46918062,0.44941866,0.44941866,0.46918062,-0.34047672,-57.694908)"
       id="g1112" />
    <g
       transform="matrix(1.3311115,-0.34208693,0.34208693,1.3311115,-136.0346,-126.15901)"
       id="g1124" />
  </g>
  <g
     inkscape:groupmode="layer"
     id="layer2"
     inkscape:label="Cine"
     transform="translate(-20.419942,-49.13443)" />
</svg>
