<?xml version="1.0" encoding="UTF-8" standalone="no"?>
<svg
   xmlns:dc="http://purl.org/dc/elements/1.1/"
   xmlns:cc="http://creativecommons.org/ns#"
   xmlns:rdf="http://www.w3.org/1999/02/22-rdf-syntax-ns#"
   xmlns:svg="http://www.w3.org/2000/svg"
   xmlns="http://www.w3.org/2000/svg"
   xmlns:sodipodi="http://sodipodi.sourceforge.net/DTD/sodipodi-0.dtd"
   xmlns:inkscape="http://www.inkscape.org/namespaces/inkscape"
   width="13.229166mm"
   height="13.229205mm"
   viewBox="0 0 13.229166 13.229205"
   version="1.1"
   id="svg8"
   inkscape:version="1.0.1 (3bc2e813f5, 2020-09-07)"
   sodipodi:docname="cinema.svg">
  <defs
     id="defs2" />
  <sodipodi:namedview
     id="base"
     pagecolor="#ffffff"
     bordercolor="#666666"
     borderopacity="1.0"
     inkscape:pageopacity="0.0"
     inkscape:pageshadow="2"
     inkscape:zoom="5.6568542"
     inkscape:cx="64.841453"
     inkscape:cy="30.764248"
     inkscape:document-units="mm"
     inkscape:current-layer="layer1"
     showgrid="false"
     inkscape:snap-global="false"
     showguides="false"
     inkscape:guide-bbox="true"
     inkscape:window-width="1920"
     inkscape:window-height="1013"
     inkscape:window-x="-9"
     inkscape:window-y="-9"
     inkscape:window-maximized="1"
     inkscape:document-rotation="0"
     fit-margin-top="0"
     fit-margin-left="0"
     fit-margin-right="0"
     fit-margin-bottom="0">
    <sodipodi:guide
       position="4.5997231e-08,6.5794528"
       orientation="1,0"
       id="guide986" />
    <sodipodi:guide
       position="-5.4002769e-08,6.6145928"
       orientation="0,-1"
       id="guide988" />
    <sodipodi:guide
       position="13.228133,6.6146028"
       orientation="1,0"
       id="guide990" />
    <sodipodi:guide
       position="6.6414551,13.229163"
       orientation="0,-1"
       id="guide992" />
    <sodipodi:guide
       position="6.6135501,13.229173"
       orientation="1,0"
       id="guide994" />
    <sodipodi:guide
       position="6.6569581,-0.0010272704"
       orientation="0,-1"
       id="guide996" />
    <sodipodi:guide
       position="10.317919,5.4465928"
       orientation="1,0"
       id="guide1000" />
    <sodipodi:guide
       position="2.9743139,4.8089128"
       orientation="1,0"
       id="guide1002" />
    <sodipodi:guide
       position="5.3969046,5.4207528"
       orientation="1,0"
       id="guide1033" />
    <sodipodi:guide
       position="10.884302,3.1512928"
       orientation="0,-1"
       id="guide1037" />
    <sodipodi:guide
       position="7.8953291,5.4207528"
       orientation="1,0"
       id="guide1039" />
    <sodipodi:guide
       position="10.884302,7.7188828"
       orientation="0,-1"
       id="guide1063" />
    <sodipodi:guide
       position="10.884302,7.7188828"
       orientation="1,0"
       id="guide1090" />
    <sodipodi:guide
       position="16.610872,-8.9637874"
       orientation="1,0"
       id="guide1130" />
    <sodipodi:guide
       position="16.610871,-8.9348474"
       orientation="0,-1"
       id="guide1132" />
    <sodipodi:guide
       position="29.840039,-9.3885774"
       orientation="1,0"
       id="guide1134" />
    <sodipodi:guide
       position="23.321573,-2.3202673"
       orientation="0,-1"
       id="guide1136" />
    <sodipodi:guide
       position="23.225455,-2.3853773"
       orientation="1,0"
       id="guide1138" />
    <sodipodi:guide
       position="23.225454,-15.549437"
       orientation="0,-1"
       id="guide1140" />
    <sodipodi:guide
       position="45.668529,56.737633"
       orientation="1,0"
       id="guide1198" />
    <sodipodi:guide
       position="45.710904,56.737633"
       orientation="0,-1"
       id="guide1200" />
    <sodipodi:guide
       position="32.439363,56.724193"
       orientation="1,0"
       id="guide1202" />
    <sodipodi:guide
       position="39.166601,63.352213"
       orientation="0,-1"
       id="guide1204" />
    <sodipodi:guide
       position="39.053946,63.346013"
       orientation="1,0"
       id="guide1206" />
    <sodipodi:guide
       position="39.103556,50.120973"
       orientation="0,-1"
       id="guide1208" />
    <sodipodi:guide
       position="63.27469,79.367773"
       orientation="1,0"
       id="guide1473" />
    <sodipodi:guide
       position="69.912011,72.772823"
       orientation="0,-1"
       id="guide1475" />
    <sodipodi:guide
       position="107.97584,43.687263"
       orientation="1,0"
       id="guide991" />
    <sodipodi:guide
       position="114.61626,37.087153"
       orientation="0,-1"
       id="guide993" />
    <sodipodi:guide
       position="114.61316,19.845823"
       orientation="0,-1"
       id="guide1051" />
    <sodipodi:guide
       position="91.092173,26.995013"
       orientation="1,0"
       id="guide1058" />
  </sodipodi:namedview>
  <metadata
     id="metadata5">
    <rdf:RDF>
      <cc:Work
         rdf:about="">
        <dc:format>image/svg+xml</dc:format>
        <dc:type
           rdf:resource="http://purl.org/dc/dcmitype/StillImage" />
        <dc:title></dc:title>
      </cc:Work>
    </rdf:RDF>
  </metadata>
  <g
     inkscape:label="Capa 1"
     inkscape:groupmode="layer"
     id="layer1"
     transform="translate(-3.8085529,-33.585508)">
    <path
       id="circle922"
       style="fill:#f0f0f0;fill-opacity:1;stroke:none;stroke-width:0.15915;stroke-opacity:1"
       d="m 39.224609,126.9375 a 25.000001,25.000001 0 0 0 -24.830078,25 25.000001,25.000001 0 0 0 25,25 25.000001,25.000001 0 0 0 25,-25 25.000001,25.000001 0 0 0 -25,-25 25.000001,25.000001 0 0 0 -0.169922,0 z m 15.773438,11.91016 0.304687,2.53515 -1.904296,0.22852 -1.542969,-2.38477 z m -4.966797,0.59765 1.542969,2.38672 -1.802735,0.2168 -1.544922,-2.38672 z m -3.628906,0.43555 1.542968,2.38672 -2.044921,0.24609 -1.542969,-2.38672 z m -3.869141,0.4668 1.541016,2.38672 -1.982422,0.23828 -1.542969,-2.38672 z m -3.808594,0.45703 1.541016,2.38672 -2.091797,0.25195 -1.542969,-2.38672 z m -3.917968,0.4707 1.542968,2.38672 -2.046875,0.24609 -1.544922,-2.38672 z m -3.873047,0.46484 1.542968,2.38868 -2.130859,0.25586 -1.542969,-2.38868 z m -3.955078,0.47657 1.542968,2.38672 -2.5625,0.30859 v 0.32422 l 2.601563,-0.002 -1.232422,2.52929 h 1.837891 l 1.232422,-2.53125 2.144531,-0.002 -1.232422,2.5332 h 1.835937 l 1.236328,-2.53515 2.060547,-0.002 -1.234375,2.53711 h 1.833985 l 1.238281,-2.53906 2.105469,-0.002 -1.236328,2.54101 h 1.835937 l 1.240234,-2.54297 1.996094,-0.002 -1.238281,2.54492 h 1.835937 l 1.240235,-2.54492 2.060547,-0.002 -1.240235,2.54687 h 1.833985 l 1.24414,-2.54883 1.816407,-0.002 -1.242188,2.55078 h 1.833985 l 1.24414,-2.55078 1.917969,-0.002 0.002,2.55273 v 17.26367 H 44.25 l -0.01563,-8.48632 h 9.15625 v -0.18946 H 25.636719 v 0.18946 h 9.15625 l 0.01367,8.48632 H 23.492188 v -17.26367 h 0.002 l 0.002,-0.84179 -0.002,-1.6836 h 0.0039 v -0.0293 h -0.0078 l -0.304687,-2.5371 z m -2.273438,0.63867 a 0.8544922,0.8544922 0 0 0 -0.07813,0.006 0.8544922,0.8544922 0 0 0 -0.07617,0.0117 0.8544922,0.8544922 0 0 0 -0.07617,0.0195 0.8544922,0.8544922 0 0 0 -0.07227,0.0254 0.8544922,0.8544922 0 0 0 -0.07227,0.0332 0.8544922,0.8544922 0 0 0 -0.06641,0.0391 0.8544922,0.8544922 0 0 0 -0.0625,0.0449 0.8544922,0.8544922 0 0 0 -0.06055,0.0508 0.8544922,0.8544922 0 0 0 -0.05273,0.0547 0.8544922,0.8544922 0 0 0 -0.05078,0.0605 0.8544922,0.8544922 0 0 0 -0.04297,0.0645 0.8544922,0.8544922 0 0 0 -0.03711,0.0684 0.8544922,0.8544922 0 0 0 -0.03125,0.0723 0.8544922,0.8544922 0 0 0 -0.02344,0.0723 0.8544922,0.8544922 0 0 0 -0.01758,0.0762 0.8544922,0.8544922 0 0 0 -0.0098,0.0781 0.8544922,0.8544922 0 0 0 -0.0039,0.0762 0.8544922,0.8544922 0 0 0 0,0.0215 0.8544922,0.8544922 0 0 0 0.0059,0.0781 0.8544922,0.8544922 0 0 0 0.01172,0.0762 0.8544922,0.8544922 0 0 0 0.01953,0.0742 0.8544922,0.8544922 0 0 0 0.02539,0.0742 0.8544922,0.8544922 0 0 0 0.0332,0.0703 0.8544922,0.8544922 0 0 0 0.03906,0.0664 0.8544922,0.8544922 0 0 0 0.04492,0.0645 0.8544922,0.8544922 0 0 0 0.05078,0.0586 0.8544922,0.8544922 0 0 0 0.05469,0.0547 0.8544922,0.8544922 0 0 0 0.06055,0.0488 0.8544922,0.8544922 0 0 0 0.06445,0.043 0.8544922,0.8544922 0 0 0 0.06836,0.0371 0.8544922,0.8544922 0 0 0 0.07227,0.0312 0.8544922,0.8544922 0 0 0 0.07227,0.0254 0.8544922,0.8544922 0 0 0 0.07617,0.0176 0.8544922,0.8544922 0 0 0 0.07617,0.01 0.8544922,0.8544922 0 0 0 0.07813,0.004 0.8544922,0.8544922 0 0 0 0.02148,0 0.8544922,0.8544922 0 0 0 0.07813,-0.006 0.8544922,0.8544922 0 0 0 0.07617,-0.0137 0.8544922,0.8544922 0 0 0 0.07422,-0.0176 0.8544922,0.8544922 0 0 0 0.07422,-0.0273 0.8544922,0.8544922 0 0 0 0.07031,-0.0332 0.8544922,0.8544922 0 0 0 0.06641,-0.0371 0.8544922,0.8544922 0 0 0 0.06445,-0.0449 0.8544922,0.8544922 0 0 0 0.05859,-0.0508 0.8544922,0.8544922 0 0 0 0.05469,-0.0566 0.8544922,0.8544922 0 0 0 0.04883,-0.0605 0.8544922,0.8544922 0 0 0 0.04297,-0.0645 0.8544922,0.8544922 0 0 0 0.03711,-0.0684 0.8544922,0.8544922 0 0 0 0.03125,-0.0703 0.8544922,0.8544922 0 0 0 0.02539,-0.0742 0.8544922,0.8544922 0 0 0 0.01563,-0.0762 0.8544922,0.8544922 0 0 0 0.01172,-0.0762 0.8544922,0.8544922 0 0 0 0.0039,-0.0781 0.8544922,0.8544922 0 0 0 0,-0.0195 0.8544922,0.8544922 0 0 0 -0.0059,-0.0781 0.8544922,0.8544922 0 0 0 -0.01367,-0.0762 0.8544922,0.8544922 0 0 0 -0.01758,-0.0762 0.8544922,0.8544922 0 0 0 -0.02734,-0.0723 0.8544922,0.8544922 0 0 0 -0.0332,-0.0703 0.8544922,0.8544922 0 0 0 -0.03711,-0.0684 0.8544922,0.8544922 0 0 0 -0.04492,-0.0625 0.8544922,0.8544922 0 0 0 -0.05078,-0.0606 0.8544922,0.8544922 0 0 0 -0.05664,-0.0527 0.8544922,0.8544922 0 0 0 -0.06055,-0.0488 0.8544922,0.8544922 0 0 0 -0.06445,-0.0449 0.8544922,0.8544922 0 0 0 -0.06836,-0.0371 0.8544922,0.8544922 0 0 0 -0.07031,-0.0312 0.8544922,0.8544922 0 0 0 -0.07422,-0.0234 0.8544922,0.8544922 0 0 0 -0.07617,-0.0176 0.8544922,0.8544922 0 0 0 -0.07617,-0.01 0.8544922,0.8544922 0 0 0 -0.07813,-0.004 0.8544922,0.8544922 0 0 0 -0.01953,0 z m 0.931641,8.74609 v 0.18946 h 27.753906 v -0.18946 z m 0,2.375 v 0.18946 h 27.753906 v -0.18946 z m 9.330078,2.56446 h 9.09375 l 0.01367,8.48632 h -9.09375 z"
       inkscape:export-filename="B:\WLARA\UCR\2021\1er Ciclo 2021\TM5500_Diseño de sitios web\Proyecto_Final\2. Bases\2.1 Fotos\Cinema_Icon.png"
       inkscape:export-xdpi="959.99768"
       inkscape:export-ydpi="959.99768"
       transform="scale(0.26458333)" />
    <flowRoot
       xml:space="preserve"
       id="flowRoot10"
       style="font-style:normal;font-weight:normal;font-size:40px;line-height:1.25;font-family:sans-serif;letter-spacing:0px;word-spacing:0px;fill:#000000;fill-opacity:1;stroke:none"
       transform="scale(0.26458333)"><flowRegion
         id="flowRegion12"><rect
           id="rect14"
           width="1542.8572"
           height="502.85715"
           x="-1177.1428"
           y="-126.05174" /></flowRegion><flowPara
         id="flowPara16" /></flowRoot>
    <g
       transform="matrix(-0.46918062,0.44941866,0.44941866,0.46918062,-0.34047672,-57.694908)"
       id="g1112" />
    <g
       transform="matrix(1.3311115,-0.34208693,0.34208693,1.3311115,-136.0346,-126.15901)"
       id="g1124" />
  </g>
  <g
     inkscape:groupmode="layer"
     id="layer2"
     inkscape:label="Cine"
     transform="translate(-3.8085529,-33.585508)" />
</svg>
