<?xml version="1.0" encoding="UTF-8" standalone="no"?>
<svg
   xmlns:dc="http://purl.org/dc/elements/1.1/"
   xmlns:cc="http://creativecommons.org/ns#"
   xmlns:rdf="http://www.w3.org/1999/02/22-rdf-syntax-ns#"
   xmlns:svg="http://www.w3.org/2000/svg"
   xmlns="http://www.w3.org/2000/svg"
   xmlns:sodipodi="http://sodipodi.sourceforge.net/DTD/sodipodi-0.dtd"
   xmlns:inkscape="http://www.inkscape.org/namespaces/inkscape"
   width="13.229166mm"
   height="13.229204mm"
   viewBox="0 0 13.229166 13.229204"
   version="1.1"
   id="svg8"
   inkscape:version="1.0.1 (3bc2e813f5, 2020-09-07)"
   sodipodi:docname="conciertos.svg">
  <defs
     id="defs2" />
  <sodipodi:namedview
     id="base"
     pagecolor="#ffffff"
     bordercolor="#666666"
     borderopacity="1.0"
     inkscape:pageopacity="0.0"
     inkscape:pageshadow="2"
     inkscape:zoom="5.6568542"
     inkscape:cx="30.843481"
     inkscape:cy="43.169751"
     inkscape:document-units="mm"
     inkscape:current-layer="layer1"
     showgrid="false"
     inkscape:snap-global="false"
     showguides="false"
     inkscape:guide-bbox="true"
     inkscape:window-width="1920"
     inkscape:window-height="1013"
     inkscape:window-x="-9"
     inkscape:window-y="-9"
     inkscape:window-maximized="1"
     inkscape:document-rotation="0"
     fit-margin-top="0"
     fit-margin-left="0"
     fit-margin-right="0"
     fit-margin-bottom="0">
    <sodipodi:guide
       position="-101.36229,-23.892072"
       orientation="1,0"
       id="guide986" />
    <sodipodi:guide
       position="-101.36229,-23.856932"
       orientation="0,-1"
       id="guide988" />
    <sodipodi:guide
       position="-88.134154,-23.856922"
       orientation="1,0"
       id="guide990" />
    <sodipodi:guide
       position="-94.720832,-17.242362"
       orientation="0,-1"
       id="guide992" />
    <sodipodi:guide
       position="-94.748737,-17.242352"
       orientation="1,0"
       id="guide994" />
    <sodipodi:guide
       position="-94.705329,-30.472552"
       orientation="0,-1"
       id="guide996" />
    <sodipodi:guide
       position="-91.044368,-25.024932"
       orientation="1,0"
       id="guide1000" />
    <sodipodi:guide
       position="-98.387974,-25.662612"
       orientation="1,0"
       id="guide1002" />
    <sodipodi:guide
       position="-95.965383,-25.050772"
       orientation="1,0"
       id="guide1033" />
    <sodipodi:guide
       position="-90.477985,-27.320232"
       orientation="0,-1"
       id="guide1037" />
    <sodipodi:guide
       position="-93.466958,-25.050772"
       orientation="1,0"
       id="guide1039" />
    <sodipodi:guide
       position="-90.477985,-22.752642"
       orientation="0,-1"
       id="guide1063" />
    <sodipodi:guide
       position="-90.477985,-22.752642"
       orientation="1,0"
       id="guide1090" />
    <sodipodi:guide
       position="-84.751415,-39.435313"
       orientation="1,0"
       id="guide1130" />
    <sodipodi:guide
       position="-84.751416,-39.406373"
       orientation="0,-1"
       id="guide1132" />
    <sodipodi:guide
       position="-71.522248,-39.860103"
       orientation="1,0"
       id="guide1134" />
    <sodipodi:guide
       position="-78.040714,-32.791793"
       orientation="0,-1"
       id="guide1136" />
    <sodipodi:guide
       position="-78.136832,-32.856903"
       orientation="1,0"
       id="guide1138" />
    <sodipodi:guide
       position="-78.136833,-46.020963"
       orientation="0,-1"
       id="guide1140" />
    <sodipodi:guide
       position="-55.693758,26.266108"
       orientation="1,0"
       id="guide1198" />
    <sodipodi:guide
       position="-55.651383,26.266108"
       orientation="0,-1"
       id="guide1200" />
    <sodipodi:guide
       position="-68.922924,26.252668"
       orientation="1,0"
       id="guide1202" />
    <sodipodi:guide
       position="-62.195686,32.880688"
       orientation="0,-1"
       id="guide1204" />
    <sodipodi:guide
       position="-62.308341,32.874488"
       orientation="1,0"
       id="guide1206" />
    <sodipodi:guide
       position="-62.258731,19.649448"
       orientation="0,-1"
       id="guide1208" />
    <sodipodi:guide
       position="-38.087598,48.896248"
       orientation="1,0"
       id="guide1473" />
    <sodipodi:guide
       position="-31.450277,42.301298"
       orientation="0,-1"
       id="guide1475" />
    <sodipodi:guide
       position="6.6135506,13.215738"
       orientation="1,0"
       id="guide991" />
    <sodipodi:guide
       position="13.253971,6.6156279"
       orientation="0,-1"
       id="guide993" />
    <sodipodi:guide
       position="13.250871,-10.625702"
       orientation="0,-1"
       id="guide1051" />
    <sodipodi:guide
       position="-10.270115,-3.4765122"
       orientation="1,0"
       id="guide1058" />
  </sodipodi:namedview>
  <metadata
     id="metadata5">
    <rdf:RDF>
      <cc:Work
         rdf:about="">
        <dc:format>image/svg+xml</dc:format>
        <dc:type
           rdf:resource="http://purl.org/dc/dcmitype/StillImage" />
        <dc:title></dc:title>
      </cc:Work>
    </rdf:RDF>
  </metadata>
  <g
     inkscape:label="Capa 1"
     inkscape:groupmode="layer"
     id="layer1"
     transform="translate(-105.17084,-3.1139844)">
    <path
       id="path18-3-7-8-1"
       style="fill:#f0f0f0;fill-opacity:1;stroke:none;stroke-width:0.15915;stroke-opacity:1"
       d="m 422.32812,11.769531 a 25.000001,25.000001 0 0 0 -24.83203,25 25.000001,25.000001 0 0 0 25,25 25.000001,25.000001 0 0 0 25,-25 25.000001,25.000001 0 0 0 -25,-25 25.000001,25.000001 0 0 0 -0.16797,0 z m -5.30468,10.935547 a 8.4005862,8.4005862 0 0 1 0.11718,0 8.4005862,8.4005862 0 0 1 6.64258,3.261719 9.910608,9.910608 0 0 1 0.16211,1.753906 9.910608,9.910608 0 0 1 -9.91211,9.910156 9.910608,9.910608 0 0 1 -2.57617,-0.34375 8.4005862,8.4005862 0 0 1 -2.7168,-6.18164 8.4005862,8.4005862 0 0 1 8.28321,-8.400391 z m 7.75781,4.910156 h 0.004 a 8.4005862,8.4005862 0 0 1 0.75781,3.490235 8.4005862,8.4005862 0 0 1 -8.40039,8.40039 8.4005862,8.4005862 0 0 1 -3.95313,-0.990234 9.910608,9.910608 0 0 0 1.74805,0.15625 9.910608,9.910608 0 0 0 9.91211,-9.910156 9.910608,9.910608 0 0 0 -0.0684,-1.146485 z m 1.42383,4.027344 9.3418,13.230469 c 0.13591,1.025117 -0.0352,1.74741 -0.31641,2.291015 0.3651,0.106288 0.75092,0.339022 0.95312,0.941407 0.40527,1.204412 -1.33249,1.297888 -1.39062,2.314453 l 0.0547,0.410156 c -0.049,-0.153547 -0.0617,-0.287261 -0.0547,-0.410156 L 434.47852,48.0625 c -0.56603,0.420918 -1.14063,0.542969 -1.14063,0.542969 l -14.7793,-8.396485 a 8.4005862,8.4005862 0 0 0 7.65039,-8.367187 8.4005862,8.4005862 0 0 0 -0.004,-0.199219 z"
       inkscape:export-filename="B:\WLARA\UCR\2021\1er Ciclo 2021\TM5500_Diseño de sitios web\Proyecto_Final\2. Bases\2.1 Fotos\Conciertos_Icon.png"
       inkscape:export-xdpi="960"
       inkscape:export-ydpi="960"
       transform="scale(0.26458333)" />
    <flowRoot
       xml:space="preserve"
       id="flowRoot10"
       style="font-style:normal;font-weight:normal;font-size:40px;line-height:1.25;font-family:sans-serif;letter-spacing:0px;word-spacing:0px;fill:#000000;fill-opacity:1;stroke:none"
       transform="scale(0.26458333)"><flowRegion
         id="flowRegion12"><rect
           id="rect14"
           width="1542.8572"
           height="502.85715"
           x="-1177.1428"
           y="-126.05174" /></flowRegion><flowPara
         id="flowPara16" /></flowRoot>
    <g
       transform="matrix(-0.46918062,0.44941866,0.44941866,0.46918062,-0.34047672,-57.694908)"
       id="g1112" />
    <g
       transform="matrix(1.3311115,-0.34208693,0.34208693,1.3311115,-136.0346,-126.15901)"
       id="g1124" />
  </g>
  <g
     inkscape:groupmode="layer"
     id="layer2"
     inkscape:label="Cine"
     transform="translate(-105.17084,-3.1139844)" />
</svg>
