<?xml version="1.0" encoding="UTF-8" standalone="no"?>
<svg
   xmlns:dc="http://purl.org/dc/elements/1.1/"
   xmlns:cc="http://creativecommons.org/ns#"
   xmlns:rdf="http://www.w3.org/1999/02/22-rdf-syntax-ns#"
   xmlns:svg="http://www.w3.org/2000/svg"
   xmlns="http://www.w3.org/2000/svg"
   xmlns:sodipodi="http://sodipodi.sourceforge.net/DTD/sodipodi-0.dtd"
   xmlns:inkscape="http://www.inkscape.org/namespaces/inkscape"
   width="13.229166mm"
   height="13.229203mm"
   viewBox="0 0 13.229166 13.229203"
   version="1.1"
   id="svg8"
   inkscape:version="1.0.1 (3bc2e813f5, 2020-09-07)"
   sodipodi:docname="fiestas.svg">
  <defs
     id="defs2" />
  <sodipodi:namedview
     id="base"
     pagecolor="#ffffff"
     bordercolor="#666666"
     borderopacity="1.0"
     inkscape:pageopacity="0.0"
     inkscape:pageshadow="2"
     inkscape:zoom="7.9999999"
     inkscape:cx="29.126063"
     inkscape:cy="35.212251"
     inkscape:document-units="mm"
     inkscape:current-layer="layer1"
     showgrid="false"
     inkscape:snap-global="false"
     showguides="false"
     inkscape:guide-bbox="true"
     inkscape:window-width="1920"
     inkscape:window-height="1013"
     inkscape:window-x="-9"
     inkscape:window-y="-9"
     inkscape:window-maximized="1"
     inkscape:document-rotation="0"
     fit-margin-top="0"
     fit-margin-left="0"
     fit-margin-right="0"
     fit-margin-bottom="0">
    <sodipodi:guide
       position="-56.661142,-59.579817"
       orientation="1,0"
       id="guide986" />
    <sodipodi:guide
       position="-56.661142,-59.544677"
       orientation="0,-1"
       id="guide988" />
    <sodipodi:guide
       position="-43.433009,-59.544667"
       orientation="1,0"
       id="guide990" />
    <sodipodi:guide
       position="-50.019687,-52.930107"
       orientation="0,-1"
       id="guide992" />
    <sodipodi:guide
       position="-50.047592,-52.930097"
       orientation="1,0"
       id="guide994" />
    <sodipodi:guide
       position="-50.004184,-66.160297"
       orientation="0,-1"
       id="guide996" />
    <sodipodi:guide
       position="-46.343223,-60.712677"
       orientation="1,0"
       id="guide1000" />
    <sodipodi:guide
       position="-53.686828,-61.350357"
       orientation="1,0"
       id="guide1002" />
    <sodipodi:guide
       position="-51.264238,-60.738517"
       orientation="1,0"
       id="guide1033" />
    <sodipodi:guide
       position="-45.77684,-63.007977"
       orientation="0,-1"
       id="guide1037" />
    <sodipodi:guide
       position="-48.765813,-60.738517"
       orientation="1,0"
       id="guide1039" />
    <sodipodi:guide
       position="-45.77684,-58.440387"
       orientation="0,-1"
       id="guide1063" />
    <sodipodi:guide
       position="-45.77684,-58.440387"
       orientation="1,0"
       id="guide1090" />
    <sodipodi:guide
       position="-40.05027,-75.123057"
       orientation="1,0"
       id="guide1130" />
    <sodipodi:guide
       position="-40.050271,-75.094117"
       orientation="0,-1"
       id="guide1132" />
    <sodipodi:guide
       position="-26.821103,-75.547847"
       orientation="1,0"
       id="guide1134" />
    <sodipodi:guide
       position="-33.339569,-68.479537"
       orientation="0,-1"
       id="guide1136" />
    <sodipodi:guide
       position="-33.435687,-68.544647"
       orientation="1,0"
       id="guide1138" />
    <sodipodi:guide
       position="-33.435688,-81.708707"
       orientation="0,-1"
       id="guide1140" />
    <sodipodi:guide
       position="-10.992613,-9.4216366"
       orientation="1,0"
       id="guide1198" />
    <sodipodi:guide
       position="-10.950238,-9.4216366"
       orientation="0,-1"
       id="guide1200" />
    <sodipodi:guide
       position="-24.221779,-9.4350766"
       orientation="1,0"
       id="guide1202" />
    <sodipodi:guide
       position="-17.494541,-2.8070565"
       orientation="0,-1"
       id="guide1204" />
    <sodipodi:guide
       position="-17.607196,-2.8132565"
       orientation="1,0"
       id="guide1206" />
    <sodipodi:guide
       position="-17.557586,-16.038297"
       orientation="0,-1"
       id="guide1208" />
    <sodipodi:guide
       position="6.6135473,13.208504"
       orientation="1,0"
       id="guide1473" />
    <sodipodi:guide
       position="13.250868,6.6135535"
       orientation="0,-1"
       id="guide1475" />
    <sodipodi:guide
       position="51.314696,-22.472007"
       orientation="1,0"
       id="guide991" />
    <sodipodi:guide
       position="57.955116,-29.072117"
       orientation="0,-1"
       id="guide993" />
    <sodipodi:guide
       position="57.952016,-46.313447"
       orientation="0,-1"
       id="guide1051" />
    <sodipodi:guide
       position="34.431031,-39.164257"
       orientation="1,0"
       id="guide1058" />
  </sodipodi:namedview>
  <metadata
     id="metadata5">
    <rdf:RDF>
      <cc:Work
         rdf:about="">
        <dc:format>image/svg+xml</dc:format>
        <dc:type
           rdf:resource="http://purl.org/dc/dcmitype/StillImage" />
        <dc:title></dc:title>
      </cc:Work>
    </rdf:RDF>
  </metadata>
  <g
     inkscape:label="Capa 1"
     inkscape:groupmode="layer"
     id="layer1"
     transform="translate(-60.469695,32.573759)">
    <path
       id="circle1399"
       style="fill:#f0f0f0;fill-opacity:1;stroke:none;stroke-width:0.15915;stroke-opacity:1"
       d="m 253.37891,-123.11328 a 25.000001,25.000001 0 0 0 -24.83203,24.999999 25.000001,25.000001 0 0 0 25,25 25.000001,25.000001 0 0 0 25,-25 25.000001,25.000001 0 0 0 -25,-24.999999 25.000001,25.000001 0 0 0 -0.16797,0 z m -6.41993,11.19336 c 0,0 -0.13673,1.69649 0.25,3.19726 -1.02695,-1.1052 -1.82226,-2.32226 -1.82226,-2.32226 0.39453,-0.62327 1.57226,-0.875 1.57226,-0.875 z m 2.39844,0.10156 c 0,0 0.79577,-0.0491 1.1582,0.27734 0,0 -0.90476,0.7425 -1.08203,1.70118 -0.67008,-1.00047 -0.0762,-1.97852 -0.0762,-1.97852 z m -6.8125,1.18359 c 0,0 0.97108,1.30185 1.59766,2.70118 -1.53251,-1.11877 -2.79883,-1.36133 -2.79883,-1.36133 0.16966,-0.71698 1.19877,-1.33839 1.20117,-1.33985 z m 11.89649,0.9375 c 0.14201,0.004 0.27985,0.0262 0.39843,0.082 0,0 -0.35588,1.0086 -0.44922,2.12304 -0.73006,-0.90642 -0.82812,-2.04883 -0.82812,-2.04883 0,0 0.45287,-0.16682 0.87891,-0.15625 z m -2.99219,0.1875 c 0.043,0.4239 0.46484,0.4375 0.46484,0.4375 l -0.0234,0.46289 c -0.77342,0.0391 -0.90234,-0.58984 -0.90234,-0.58984 z m 5.54492,0.34571 c 0,0 1.20465,-0.0432 1.74024,0.46289 0,0 -1.39338,1.08873 -1.69727,2.53125 -0.97527,-1.53725 -0.043,-2.99414 -0.043,-2.99414 z m -4.50391,1.9082 c 0.0984,0.003 0.19275,0.0159 0.28321,0.041 0,0 -0.7396,1.64367 -0.32813,3.08984 -1.61102,-0.9236 -1.46094,-2.67969 -1.46093,-2.67969 0,0 0.8169,-0.46908 1.50585,-0.45117 z m -5.60742,0.45898 c 0,0 0.72381,-0.0639 0.90235,0.58985 l -0.46094,0.31055 c -0.0443,-0.43206 -0.46485,-0.4375 -0.46484,-0.4375 z m -5.23242,0.47266 0.46094,0.0527 c 0,0 -0.0635,0.41684 0.35547,0.53125 l -0.38282,0.40429 c -0.61571,-0.28307 -0.43359,-0.98828 -0.43359,-0.98828 z m 14.07031,0.5957 c 0.10381,0.003 0.2063,0.0197 0.29297,0.0606 0,0 -0.2599,0.73813 -0.32812,1.55274 -0.53367,-0.66255 -0.60547,-1.49805 -0.60547,-1.49805 0,0 0.32921,-0.12296 0.64062,-0.11524 z m -6.10351,0.63868 c 0,0 0.46968,1.52635 0.74219,3.03515 -1.12166,-1.00887 -2.23047,-2.02148 -2.23047,-2.02148 0.33714,-0.65608 1.48828,-1.01367 1.48828,-1.01367 z m -4.85352,0.30859 c 0,0 1.40664,0.69077 2.39453,1.86328 -1.47515,-0.31601 -3.17968,-0.24414 -3.17968,-0.24414 -0.0345,-0.73685 0.78515,-1.61914 0.78515,-1.61914 z m 8.53711,0.50391 c 0.77343,-0.0391 0.90234,0.58984 0.90234,0.58984 l -0.46093,0.31055 c -0.043,-0.4239 -0.46485,-0.4375 -0.46485,-0.4375 z m -12.10351,1.20898 c 0.37513,0.003 1.1924,0.10973 1.7207,0.92383 -1.02196,-0.23093 -2.13867,0.34766 -2.13867,0.34765 -0.16893,-0.49628 0.21679,-1.26171 0.21679,-1.26171 0,0 0.0761,-0.0106 0.20118,-0.01 z m 19.50195,0.4707 0.36328,0.66602 c -1.10048,0.0567 -7.01528,0.78209 -11.37891,9.738281 l -0.71093,-0.460938 c 0,0 2.85673,-8.952513 11.72656,-9.943363 z m 0.80273,1.46875 3.20117,5.859379 0.50391,0.923828 c -1.05822,0.08677 -5.15161,0.82828 -8.37305,6.779297 l -6.37109,-4.123047 c 0.61913,-1.163284 4.8051,-8.596067 11.03906,-9.439457 z m -18.22656,0.90235 c 0.52778,0.005 1.67673,0.16064 2.41602,1.308591 -1.43673,-0.329711 -3.00782,0.478516 -3.00782,0.478516 -0.23533,-0.699092 0.31055,-1.773437 0.31055,-1.773437 0,0 0.10532,-0.0155 0.28125,-0.0137 z m 3.7793,0.11914 c 0,0 1.1362,0.141593 2.01367,0.906248 -1.11721,0.05015 -2.13672,0.367188 -2.13672,0.367188 -0.20481,-0.482608 0.12305,-1.273436 0.12305,-1.273436 z m -6.10352,1.749998 c 0.043,0.423897 0.46485,0.4375 0.46485,0.4375 l -0.0234,0.462891 c -0.77343,0.03906 -0.90235,-0.589844 -0.90235,-0.589844 z m 7.08203,0.564453 0.31055,0.460938 c -0.4239,0.04297 -0.4375,0.464843 -0.4375,0.464843 l -0.46289,-0.02344 c -0.0391,-0.773431 0.58984,-0.902344 0.58984,-0.902344 z m -2.75976,1.16211 c 0.19814,0.01661 0.40765,0.05561 0.625,0.123047 -1.31277,0.670471 -1.99805,2.298828 -1.99805,2.298828 -0.62943,-0.384507 -0.90234,-1.558594 -0.90234,-1.558594 0,0 0.88837,-0.979566 2.27539,-0.863281 z m 20.28125,2.919921 0.53711,0.982422 c -0.69443,0.03272 -4.58083,0.487818 -7.50196,6.300782 l -1.11328,-0.722657 c 1.13345,-1.871783 4.03451,-5.962412 8.07813,-6.560547 z m 0.82812,1.517579 0.68164,1.246093 c -0.66663,0.03587 -4.11788,0.482346 -6.70507,5.664063 l -1.23829,-0.800781 c 0.49677,-0.920335 3.17433,-5.560848 7.26172,-6.109375 z m 0.94141,1.724609 1.6875,3.087891 c 1.43783,6.903046 -5.14844,4.365234 -5.14844,4.365234 l -3.03125,-1.960937 c 0.39637,-0.741113 2.80396,-4.98731 6.49219,-5.492188 z"
       transform="scale(0.26458333)" />
    <flowRoot
       xml:space="preserve"
       id="flowRoot10"
       style="font-style:normal;font-weight:normal;font-size:40px;line-height:1.25;font-family:sans-serif;letter-spacing:0px;word-spacing:0px;fill:#000000;fill-opacity:1;stroke:none"
       transform="scale(0.26458333)"><flowRegion
         id="flowRegion12"><rect
           id="rect14"
           width="1542.8572"
           height="502.85715"
           x="-1177.1428"
           y="-126.05174" /></flowRegion><flowPara
         id="flowPara16" /></flowRoot>
    <g
       transform="matrix(-0.46918062,0.44941866,0.44941866,0.46918062,-0.34047672,-57.694908)"
       id="g1112" />
    <g
       transform="matrix(1.3311115,-0.34208693,0.34208693,1.3311115,-136.0346,-126.15901)"
       id="g1124" />
    <g
       style="fill:#1f4761;fill-opacity:1;stroke:none;stroke-width:0.0820417;stroke-miterlimit:4;stroke-dasharray:none"
       id="g1437"
       transform="matrix(0.17664506,-0.1497671,0.1497671,0.17664506,12.004042,-33.003882)">
      <g
         style="fill:#1f4761;fill-opacity:1;stroke:none;stroke-width:0.0820417;stroke-miterlimit:4;stroke-dasharray:none"
         id="g1435">
        <path
           style="fill:#1f4761;fill-opacity:1;stroke:none;stroke-width:0.0820417;stroke-linecap:butt;stroke-linejoin:miter;stroke-miterlimit:4;stroke-dasharray:none;stroke-opacity:1"
           d="m 162.06561,165.62867 0.63137,0.0702"
           id="path1433"
           inkscape:connector-curvature="0" />
      </g>
    </g>
    <g
       style="fill:#1f4761;fill-opacity:1;stroke:none;stroke-width:0.0820417;stroke-miterlimit:4;stroke-dasharray:none"
       id="g1453"
       transform="matrix(-0.17664506,0.1497671,0.1497671,0.17664506,67.974964,-81.506764)">
      <g
         style="fill:#1f4761;fill-opacity:1;stroke:none;stroke-width:0.0820417;stroke-miterlimit:4;stroke-dasharray:none"
         id="g1451">
        <path
           style="fill:#1f4761;fill-opacity:1;stroke:none;stroke-width:0.0820417;stroke-linecap:butt;stroke-linejoin:miter;stroke-miterlimit:4;stroke-dasharray:none;stroke-opacity:1"
           d="m 162.06561,165.62867 0.63137,0.0702"
           id="path1449"
           inkscape:connector-curvature="0" />
      </g>
    </g>
  </g>
  <g
     inkscape:groupmode="layer"
     id="layer2"
     inkscape:label="Cine"
     transform="translate(-60.469695,32.573759)" />
</svg>
