<?xml version="1.0" encoding="UTF-8" standalone="no"?>
<svg
   xmlns:dc="http://purl.org/dc/elements/1.1/"
   xmlns:cc="http://creativecommons.org/ns#"
   xmlns:rdf="http://www.w3.org/1999/02/22-rdf-syntax-ns#"
   xmlns:svg="http://www.w3.org/2000/svg"
   xmlns="http://www.w3.org/2000/svg"
   xmlns:sodipodi="http://sodipodi.sourceforge.net/DTD/sodipodi-0.dtd"
   xmlns:inkscape="http://www.inkscape.org/namespaces/inkscape"
   width="13.229166mm"
   height="13.229204mm"
   viewBox="0 0 13.229166 13.229204"
   version="1.1"
   id="svg8"
   inkscape:version="1.0.1 (3bc2e813f5, 2020-09-07)"
   sodipodi:docname="teatro.svg">
  <defs
     id="defs2" />
  <sodipodi:namedview
     id="base"
     pagecolor="#ffffff"
     bordercolor="#666666"
     borderopacity="1.0"
     inkscape:pageopacity="0.0"
     inkscape:pageshadow="2"
     inkscape:zoom="11.313708"
     inkscape:cx="29.129646"
     inkscape:cy="25.464573"
     inkscape:document-units="mm"
     inkscape:current-layer="layer1"
     showgrid="false"
     inkscape:snap-global="false"
     showguides="false"
     inkscape:guide-bbox="true"
     inkscape:window-width="1920"
     inkscape:window-height="1013"
     inkscape:window-x="-9"
     inkscape:window-y="-9"
     inkscape:window-maximized="1"
     inkscape:document-rotation="0"
     fit-margin-top="0"
     fit-margin-left="0"
     fit-margin-right="0"
     fit-margin-bottom="0">
    <sodipodi:guide
       position="-32.439364,-43.542552"
       orientation="1,0"
       id="guide986" />
    <sodipodi:guide
       position="-32.439364,-43.507412"
       orientation="0,-1"
       id="guide988" />
    <sodipodi:guide
       position="-19.21123,-43.507402"
       orientation="1,0"
       id="guide990" />
    <sodipodi:guide
       position="-25.797909,-36.892842"
       orientation="0,-1"
       id="guide992" />
    <sodipodi:guide
       position="-25.825814,-36.892832"
       orientation="1,0"
       id="guide994" />
    <sodipodi:guide
       position="-25.782406,-50.123033"
       orientation="0,-1"
       id="guide996" />
    <sodipodi:guide
       position="-22.121445,-44.675413"
       orientation="1,0"
       id="guide1000" />
    <sodipodi:guide
       position="-29.46505,-45.313093"
       orientation="1,0"
       id="guide1002" />
    <sodipodi:guide
       position="-27.042459,-44.701253"
       orientation="1,0"
       id="guide1033" />
    <sodipodi:guide
       position="-21.555062,-46.970713"
       orientation="0,-1"
       id="guide1037" />
    <sodipodi:guide
       position="-24.544035,-44.701253"
       orientation="1,0"
       id="guide1039" />
    <sodipodi:guide
       position="-21.555062,-42.403122"
       orientation="0,-1"
       id="guide1063" />
    <sodipodi:guide
       position="-21.555062,-42.403122"
       orientation="1,0"
       id="guide1090" />
    <sodipodi:guide
       position="-15.828491,-59.085793"
       orientation="1,0"
       id="guide1130" />
    <sodipodi:guide
       position="-15.828492,-59.056853"
       orientation="0,-1"
       id="guide1132" />
    <sodipodi:guide
       position="-2.5993243,-59.510583"
       orientation="1,0"
       id="guide1134" />
    <sodipodi:guide
       position="-9.1177904,-52.442273"
       orientation="0,-1"
       id="guide1136" />
    <sodipodi:guide
       position="-9.2139084,-52.507383"
       orientation="1,0"
       id="guide1138" />
    <sodipodi:guide
       position="-9.2139094,-65.671443"
       orientation="0,-1"
       id="guide1140" />
    <sodipodi:guide
       position="13.229166,6.615628"
       orientation="1,0"
       id="guide1198" />
    <sodipodi:guide
       position="13.271541,6.615628"
       orientation="0,-1"
       id="guide1200" />
    <sodipodi:guide
       position="-3.0343066e-07,6.602188"
       orientation="1,0"
       id="guide1202" />
    <sodipodi:guide
       position="6.7272378,13.230208"
       orientation="0,-1"
       id="guide1204" />
    <sodipodi:guide
       position="6.6145828,13.224008"
       orientation="1,0"
       id="guide1206" />
    <sodipodi:guide
       position="6.6641928,-0.0010320599"
       orientation="0,-1"
       id="guide1208" />
    <sodipodi:guide
       position="30.835326,29.245768"
       orientation="1,0"
       id="guide1473" />
    <sodipodi:guide
       position="37.472647,22.650818"
       orientation="0,-1"
       id="guide1475" />
    <sodipodi:guide
       position="75.536474,-6.4347421"
       orientation="1,0"
       id="guide991" />
    <sodipodi:guide
       position="82.176895,-13.034852"
       orientation="0,-1"
       id="guide993" />
    <sodipodi:guide
       position="82.173795,-30.276182"
       orientation="0,-1"
       id="guide1051" />
    <sodipodi:guide
       position="58.652809,-23.126992"
       orientation="1,0"
       id="guide1058" />
  </sodipodi:namedview>
  <metadata
     id="metadata5">
    <rdf:RDF>
      <cc:Work
         rdf:about="">
        <dc:format>image/svg+xml</dc:format>
        <dc:type
           rdf:resource="http://purl.org/dc/dcmitype/StillImage" />
        <dc:title></dc:title>
      </cc:Work>
    </rdf:RDF>
  </metadata>
  <g
     inkscape:label="Capa 1"
     inkscape:groupmode="layer"
     id="layer1"
     transform="translate(-36.247916,16.536495)">
    <flowRoot
       xml:space="preserve"
       id="flowRoot10"
       style="font-style:normal;font-weight:normal;font-size:40px;line-height:1.25;font-family:sans-serif;letter-spacing:0px;word-spacing:0px;fill:#000000;fill-opacity:1;stroke:none"
       transform="scale(0.26458333)"><flowRegion
         id="flowRegion12"><rect
           id="rect14"
           width="1542.8572"
           height="502.85715"
           x="-1177.1428"
           y="-126.05174" /></flowRegion><flowPara
         id="flowPara16" /></flowRoot>
    <g
       transform="matrix(-0.46918062,0.44941866,0.44941866,0.46918062,-0.34047672,-57.694908)"
       id="g1112" />
    <g
       transform="matrix(1.3311115,-0.34208693,0.34208693,1.3311115,-136.0346,-126.15901)"
       id="g1124" />
    <path
       id="path18-3-5-9"
       style="fill:#f0f0f0;fill-opacity:1;stroke:none;stroke-width:0.15915;stroke-opacity:1"
       d="M 161.83203,-62.5 A 25.000001,25.000001 0 0 0 137,-37.5 a 25.000001,25.000001 0 0 0 25,25 25.000001,25.000001 0 0 0 25,-25 25.000001,25.000001 0 0 0 -25,-25 25.000001,25.000001 0 0 0 -0.16797,0 z m 1.25781,9.066406 c 0,0 6.58766,1.195715 8.70899,6.322266 0,0 0.818,1.746095 0.97265,4.353516 0,-10e-7 0.35221,1.436199 1.58985,0.419921 0,0 2.47543,-3.359323 -0.0879,-8.220703 0,0 4.90488,3.270425 4.10937,8.66211 0,0 0.30924,1.126391 1.54688,0.08789 0,0 1.19339,-2.298111 0.13281,-4.507812 1e-5,0 3.0504,3.625029 2.07812,7.779297 -2.74004,15.821519 -19.80078,16.980468 -19.80078,16.980468 0,0 -17.05879,-1.158949 -19.79882,-16.980468 0,0 -0.97122,-1.536277 -0.88282,-4.066407 0,0 1.74916,4.066407 4.94922,4.066407 0,0 8.3962,-5.480089 15.73242,0 0,0 7.37914,-8.532516 0.75,-14.896485 z m 1.75977,0.691406 a 0.27420299,0.27420299 0 0 0 -0.27344,0.275391 0.27420299,0.27420299 0 0 0 0.27344,0.273438 0.27420299,0.27420299 0 0 0 0.27344,-0.273438 0.27420299,0.27420299 0 0 0 -0.27344,-0.275391 z m 1.07422,0.46875 a 0.30935924,0.30935924 0 0 0 -0.28906,0.310547 0.30935924,0.30935924 0 0 0 0.30859,0.308594 0.30935924,0.30935924 0 0 0 0.30859,-0.308594 0.30935924,0.30935924 0 0 0 -0.30859,-0.310547 0.30935924,0.30935924 0 0 0 -0.0195,0 z m 1.09765,0.566407 a 0.30935924,0.30935924 0 0 0 -0.28906,0.310547 0.30935924,0.30935924 0 0 0 0.3086,0.308593 0.30935924,0.30935924 0 0 0 0.30859,-0.308593 0.30935924,0.30935924 0 0 0 -0.30859,-0.310547 0.30935924,0.30935924 0 0 0 -0.0195,0 z m 0.98438,0.613281 a 0.33279674,0.33279674 0 0 0 -0.33203,0.333984 0.33279674,0.33279674 0 0 0 0.33203,0.332032 0.33279674,0.33279674 0 0 0 0.33203,-0.332032 0.33279674,0.33279674 0 0 0 -0.33203,-0.333984 z m 0.91797,0.707031 a 0.33279674,0.33279674 0 0 0 -0.33399,0.333985 0.33279674,0.33279674 0 0 0 0.33399,0.332031 0.33279674,0.33279674 0 0 0 0.33203,-0.332031 0.33279674,0.33279674 0 0 0 -0.33203,-0.333985 z m 0.7539,0.746094 a 0.36041805,0.36041805 0 0 0 -0.34765,0.361328 0.36041805,0.36041805 0 0 0 0.36133,0.359375 0.36041805,0.36041805 0 0 0 0.35937,-0.359375 0.36041805,0.36041805 0 0 0 -0.35937,-0.361328 0.36041805,0.36041805 0 0 0 -0.0117,0 0.36041805,0.36041805 0 0 1 -0.002,0 z m 5.48633,0.148437 a 0.16275961,0.16275961 0 0 0 -0.1582,0.105469 0.16275961,0.16275961 0 0 0 0.0937,0.210938 0.16275961,0.16275961 0 0 0 0.20898,-0.0957 0.16275961,0.16275961 0 0 0 -0.0937,-0.208985 0.16275961,0.16275961 0 0 0 -0.0508,-0.01172 z m 0.48828,0.490235 a 0.18362748,0.18362748 0 0 0 -0.16601,0.119141 0.18362748,0.18362748 0 0 0 0.10547,0.236328 0.18362748,0.18362748 0 0 0 0.23632,-0.105469 0.18362748,0.18362748 0 0 0 -0.10546,-0.238281 0.18362748,0.18362748 0 0 0 -0.0703,-0.01172 z m -5.17773,0.378906 a 0.36041805,0.36041805 0 0 0 -0.34961,0.359375 0.36041805,0.36041805 0 0 0 0.36133,0.361328 0.36041805,0.36041805 0 0 0 0.35937,-0.361328 0.36041805,0.36041805 0 0 0 -0.35937,-0.359375 0.36041805,0.36041805 0 0 0 -0.0117,0 z m 5.66601,0.167969 a 0.18362748,0.18362748 0 0 0 -0.16601,0.117187 0.18362748,0.18362748 0 0 0 0.10742,0.238282 0.18362748,0.18362748 0 0 0 0.23633,-0.107422 0.18362748,0.18362748 0 0 0 -0.10547,-0.236328 0.18362748,0.18362748 0 0 0 -0.0723,-0.01172 z m 0.39258,0.542969 a 0.19753935,0.19753935 0 0 0 -0.16992,0.126953 0.19753935,0.19753935 0 0 0 0.11328,0.255859 0.19753935,0.19753935 0 0 0 0.25586,-0.115234 0.19753935,0.19753935 0 0 0 -0.11523,-0.253907 0.19753935,0.19753935 0 0 0 -0.084,-0.01367 z m 0.35938,0.585937 a 0.19753935,0.19753935 0 0 0 -0.16992,0.126953 0.19753935,0.19753935 0 0 0 0.11328,0.25586 0.19753935,0.19753935 0 0 0 0.25586,-0.115235 0.19753935,0.19753935 0 0 0 -0.11524,-0.253906 0.19753935,0.19753935 0 0 0 -0.084,-0.01367 z m 0.27734,0.574219 a 0.21393464,0.21393464 0 0 0 -0.0254,0.002 0.21393464,0.21393464 0 0 0 -0.17578,0.136719 0.21393464,0.21393464 0 0 0 0.125,0.27539 0.21393464,0.21393464 0 0 0 0.27539,-0.123047 0.21393464,0.21393464 0 0 0 -0.12305,-0.277343 0.21393464,0.21393464 0 0 0 -0.0762,-0.01367 z m 0.19922,0.732422 a 0.21393464,0.21393464 0 0 0 -0.17383,0.138672 0.21393464,0.21393464 0 0 0 0.12305,0.27539 0.21393464,0.21393464 0 0 0 0.27734,-0.123047 0.21393464,0.21393464 0 0 0 -0.125,-0.277343 0.21393464,0.21393464 0 0 0 -0.0605,-0.01367 0.21393464,0.21393464 0 0 0 -0.0391,0 0.21393464,0.21393464 0 0 1 -0.002,0 z m 3.31641,0.86914 a 0.12327738,0.12327738 0 0 0 -0.10352,0.04687 0.12327738,0.12327738 0 0 0 0.0215,0.173828 0.12327738,0.12327738 0 0 0 0.17187,-0.02148 0.12327738,0.12327738 0 0 0 -0.0195,-0.173828 0.12327738,0.12327738 0 0 0 -0.0703,-0.02539 z m 0.24023,0.464844 a 0.1390831,0.1390831 0 0 0 -0.10742,0.05469 0.1390831,0.1390831 0 0 0 0.0234,0.195312 0.1390831,0.1390831 0 0 0 0.19531,-0.02539 0.1390831,0.1390831 0 0 0 -0.0234,-0.195312 0.1390831,0.1390831 0 0 0 -0.0879,-0.0293 z m 0.23242,0.505859 a 0.1390831,0.1390831 0 0 0 -0.10742,0.05273 0.1390831,0.1390831 0 0 0 0.0234,0.195312 0.1390831,0.1390831 0 0 0 0.19531,-0.02344 0.1390831,0.1390831 0 0 0 -0.0234,-0.195313 0.1390831,0.1390831 0 0 0 -0.0879,-0.0293 z m 0.16016,0.480469 a 0.14962023,0.14962023 0 0 0 -0.11133,0.05859 0.14962023,0.14962023 0 0 0 0.0254,0.208984 0.14962023,0.14962023 0 0 0 0.21094,-0.02539 0.14962023,0.14962023 0 0 0 -0.0254,-0.208985 0.14962023,0.14962023 0 0 0 -0.0977,-0.0332 0.14962023,0.14962023 0 0 1 -0.002,0 z m 0.13086,0.50586 a 0.14962023,0.14962023 0 0 0 -0.11328,0.05664 0.14962023,0.14962023 0 0 0 0.0273,0.210938 0.14962023,0.14962023 0 0 0 0.20899,-0.02734 0.14962023,0.14962023 0 0 0 -0.0254,-0.208984 0.14962023,0.14962023 0 0 0 -0.0977,-0.03125 z m -27.0332,2.628906 a 0.27420299,0.27420299 0 0 0 -0.0859,0.01758 0.27420299,0.27420299 0 0 0 -0.15625,0.355469 0.27420299,0.27420299 0 0 0 0.35351,0.15625 0.27420299,0.27420299 0 0 0 0.15625,-0.353516 0.27420299,0.27420299 0 0 0 -0.26757,-0.175781 z m 1.19336,0.03906 a 0.30935924,0.30935924 0 0 0 -0.0898,0.02148 0.30935924,0.30935924 0 0 0 -0.17773,0.40039 0.30935924,0.30935924 0 0 0 0.40039,0.175782 0.30935924,0.30935924 0 0 0 0.17773,-0.400391 0.30935924,0.30935924 0 0 0 -0.31054,-0.197266 z m -2.19922,0.03516 a 0.27245994,0.27245994 0 0 0 -0.22071,0.123046 0.27245994,0.27245994 0 0 0 0.0781,0.376954 0.27245994,0.27245994 0 0 0 0.37695,-0.07813 0.27245994,0.27245994 0 0 0 -0.0781,-0.376953 0.27245994,0.27245994 0 0 0 -0.1543,-0.04492 0.27245994,0.27245994 0 0 1 -0.002,0 z m 3.42773,0.09766 a 0.30935924,0.30935924 0 0 0 -0.0898,0.01953 0.30935924,0.30935924 0 0 0 -0.17774,0.400391 0.30935924,0.30935924 0 0 0 0.40039,0.175781 0.30935924,0.30935924 0 0 0 0.17578,-0.400391 0.30935924,0.30935924 0 0 0 -0.30859,-0.195312 z m -4.39062,0.05078 a 0.27245994,0.27245994 0 0 0 -0.22071,0.123047 0.27245994,0.27245994 0 0 0 0.0781,0.376953 0.27245994,0.27245994 0 0 0 0.37695,-0.07813 0.27245994,0.27245994 0 0 0 -0.0762,-0.376953 0.27245994,0.27245994 0 0 0 -0.15625,-0.04492 0.27245994,0.27245994 0 0 1 -0.002,0 z m 5.51562,0.169922 a 0.33279674,0.33279674 0 0 0 -0.0937,0.02148 0.33279674,0.33279674 0 0 0 -0.19141,0.431641 0.33279674,0.33279674 0 0 0 0.43165,0.189453 0.33279674,0.33279674 0 0 0 0.18945,-0.431641 0.33279674,0.33279674 0 0 0 -0.33594,-0.210937 z m -6.44141,0.05664 a 0.25157945,0.25157945 0 0 0 -0.21484,0.113281 0.25157945,0.25157945 0 0 0 0.0703,0.349609 0.25157945,0.25157945 0 0 0 0.34961,-0.07227 0.25157945,0.25157945 0 0 0 -0.0723,-0.347657 0.25157945,0.25157945 0 0 0 -0.13282,-0.04297 z m -0.88671,0.224609 a 0.25157945,0.25157945 0 0 0 -0.21485,0.113281 0.25157945,0.25157945 0 0 0 0.0723,0.347656 0.25157945,0.25157945 0 0 0 0.34765,-0.07031 0.25157945,0.25157945 0 0 0 -0.0703,-0.349609 0.25157945,0.25157945 0 0 0 -0.13476,-0.04102 z m 8.4375,0.04687 a 0.33279674,0.33279674 0 0 0 -0.0937,0.02148 0.33279674,0.33279674 0 0 0 -0.18946,0.429688 0.33279674,0.33279674 0 0 0 0.43164,0.191406 0.33279674,0.33279674 0 0 0 0.18946,-0.43164 0.33279674,0.33279674 0 0 0 -0.33594,-0.210938 0.33279674,0.33279674 0 0 1 -0.002,0 z m -9.25196,0.220703 a 0.23386174,0.23386174 0 0 0 -0.20703,0.105469 0.23386174,0.23386174 0 0 0 0.0664,0.324219 0.23386174,0.23386174 0 0 0 0.32422,-0.06641 0.23386174,0.23386174 0 0 0 -0.0664,-0.324218 0.23386174,0.23386174 0 0 0 -0.11719,-0.03906 z m 10.29297,0.193359 a 0.36041805,0.36041805 0 0 0 -0.0508,0.002 0.36041805,0.36041805 0 0 0 -0.0977,0.02344 0.36041805,0.36041805 0 0 0 -0.20507,0.466797 0.36041805,0.36041805 0 0 0 0.46484,0.205078 0.36041805,0.36041805 0 0 0 0.20703,-0.466797 0.36041805,0.36041805 0 0 0 -0.31836,-0.230469 z m -11.08789,0.121094 a 0.23386174,0.23386174 0 0 0 -0.041,0.002 0.23386174,0.23386174 0 0 0 -0.16797,0.103516 0.23386174,0.23386174 0 0 0 0.0664,0.324219 0.23386174,0.23386174 0 0 0 0.32422,-0.06641 0.23386174,0.23386174 0 0 0 -0.0664,-0.324219 0.23386174,0.23386174 0 0 0 -0.11523,-0.03906 z m -0.71484,0.324219 a 0.20728517,0.20728517 0 0 0 -0.15821,0.09375 0.20728517,0.20728517 0 0 0 0.0586,0.287109 0.20728517,0.20728517 0 0 0 0.28711,-0.05859 0.20728517,0.20728517 0 0 0 -0.0586,-0.28711 0.20728517,0.20728517 0 0 0 -0.12695,-0.03516 0.20728517,0.20728517 0 0 1 -0.002,0 z m 12.91211,0.214844 a 0.36041805,0.36041805 0 0 0 -0.14844,0.02539 0.36041805,0.36041805 0 0 0 -0.20703,0.464844 0.36041805,0.36041805 0 0 0 0.46679,0.207031 0.36041805,0.36041805 0 0 0 0.20704,-0.466796 0.36041805,0.36041805 0 0 0 -0.31836,-0.230469 z m -6.15625,3.701172 a 3.9929129,1.9978765 10.713886 0 0 -2.92774,1.376953 3.9929129,1.9978765 10.713886 0 0 3.59375,2.691406 3.9929129,1.9978765 10.713886 0 0 4.25977,-1.246094 3.9929129,1.9978765 10.713886 0 0 -3.59571,-2.693359 3.9929129,1.9978765 10.713886 0 0 -1.32812,-0.128906 3.9929129,1.9978765 10.713886 0 1 -0.002,0 z m 15.42578,0 a 1.9978765,3.9929129 79.286114 0 0 -1.29492,0.128906 1.9978765,3.9929129 79.286114 0 0 -3.59571,2.693359 1.9978765,3.9929129 79.286114 0 0 4.25977,1.246094 1.9978765,3.9929129 79.286114 0 0 3.59375,-2.691406 1.9978765,3.9929129 79.286114 0 0 -2.92969,-1.376953 1.9978765,3.9929129 79.286114 0 0 -0.0332,0 z"
       inkscape:export-filename="B:\WLARA\UCR\2021\1er Ciclo 2021\TM5500_Diseño de sitios web\Proyecto_Final\2. Bases\2.1 Fotos\Teatro_Icon.png"
       inkscape:export-xdpi="960"
       inkscape:export-ydpi="960"
       transform="scale(0.26458333)" />
    <path
       style="fill:none;stroke:none;stroke-width:0.264583px;stroke-linecap:butt;stroke-linejoin:miter;stroke-opacity:1"
       d="m 42.862499,-7.2847649 h -0.387524 l 0.387524,0.292326 z"
       id="path1351" />
  </g>
  <g
     inkscape:groupmode="layer"
     id="layer2"
     inkscape:label="Cine"
     transform="translate(-36.247916,16.536495)" />
</svg>
